<svg xmlns="http://www.w3.org/2000/svg" xmlns:xlink="http://www.w3.org/1999/xlink" version="1.1" x="0px" y="0px" viewBox="0 0 100 100" enable-background="new 0 0 100 100" xml:space="preserve"><path fill="#272727" d="M13.141,31.461h72.259c4.879,0,8.87-3.497,8.87-7.77c0-4.273-3.991-7.77-8.87-7.77H13.141  c-4.879,0-8.871,3.497-8.871,7.77C4.27,27.964,8.262,31.461,13.141,31.461z"/><path fill="#272727" d="M85.399,78.08H13.141c-4.879,0-8.871,3.497-8.871,7.77c0,4.273,3.992,7.77,8.871,7.77h72.259  c4.879,0,8.87-3.497,8.87-7.77C94.27,81.577,90.278,78.08,85.399,78.08z"/><path fill="#272727" d="M85.399,47H13.141c-4.879,0-8.871,3.497-8.871,7.77s3.992,7.77,8.871,7.77h72.259  c4.879,0,8.87-3.497,8.87-7.77S90.278,47,85.399,47z"/></svg>